<?xml version="1.0" encoding="UTF-8" standalone="no"?>
<svg
   xmlns:dc="http://purl.org/dc/elements/1.1/"
   xmlns:cc="http://creativecommons.org/ns#"
   xmlns:rdf="http://www.w3.org/1999/02/22-rdf-syntax-ns#"
   xmlns:svg="http://www.w3.org/2000/svg"
   xmlns="http://www.w3.org/2000/svg"
   xmlns:sodipodi="http://sodipodi.sourceforge.net/DTD/sodipodi-0.dtd"
   xmlns:inkscape="http://www.inkscape.org/namespaces/inkscape"
   width="100%"
   height="100%"
   viewBox="0 0 600 600"
   version="1.1"
   xml:space="preserve"
   style="fill-rule:evenodd;clip-rule:evenodd;stroke-linecap:round;stroke-linejoin:round;stroke-miterlimit:1.5;"
   id="svg69"
   sodipodi:docname="chemfiles.svg"
   inkscape:version="0.92.3 (2405546, 2018-03-11)"><metadata
   id="metadata75"><rdf:RDF><cc:Work
       rdf:about=""><dc:format>image/svg+xml</dc:format><dc:type
         rdf:resource="http://purl.org/dc/dcmitype/StillImage" /></cc:Work></rdf:RDF></metadata><defs
   id="defs73">
        
        
        
        
        
    
            
            
            
            
            
        </defs><sodipodi:namedview
   pagecolor="#ffffff"
   bordercolor="#666666"
   borderopacity="1"
   objecttolerance="10"
   gridtolerance="10"
   guidetolerance="10"
   inkscape:pageopacity="0"
   inkscape:pageshadow="2"
   inkscape:window-width="1920"
   inkscape:window-height="1016"
   id="namedview71"
   showgrid="false"
   inkscape:zoom="1.1125147"
   inkscape:cx="543.90081"
   inkscape:cy="269.79927"
   inkscape:window-x="0"
   inkscape:window-y="27"
   inkscape:window-maximized="1"
   inkscape:current-layer="svg69" />
    <g
   id="g4"
   transform="matrix(3.9755615,0.70099639,-0.65503802,3.7148946,92.660139,-58.935018)">
            <path
   inkscape:connector-curvature="0"
   id="path2"
   style="fill:#4086b2;fill-rule:nonzero"
   d="M 124.126,44.748 88.131,11.495 H 23.156 v 142.459 h 100.97 z" />
        </g><g
   id="g8"
   transform="matrix(4.0215282,0.35183778,-0.32876901,3.7578488,20.025498,-51.343599)">
            <path
   inkscape:connector-curvature="0"
   id="path6"
   style="fill:#94bed8;fill-rule:nonzero"
   d="M 124.126,44.748 88.131,11.495 H 23.156 v 142.459 h 100.97 z" />
        </g><g
   id="g12"
   transform="matrix(4.0368907,0,0,3.772203,-50.297225,-43.361468)">
            <path
   inkscape:connector-curvature="0"
   id="path10"
   style="fill:#e2edf4;fill-rule:nonzero"
   d="M 124.126,44.748 88.131,11.495 H 23.156 v 142.459 h 100.97 z" />
        </g><g
   id="g44"
   transform="matrix(4.0368907,0,0,4.0368907,-50.297225,-84.110876)">
            <g
   id="g18">
                <path
   inkscape:connector-curvature="0"
   id="path14"
   style="fill:#4086b2;fill-rule:nonzero"
   d="M 29.989,124.283 H 77.871" />
                <path
   inkscape:connector-curvature="0"
   id="path16"
   style="fill:#1470b8"
   d="m 78.039,122.792 0.166,0.028 0.161,0.047 0.156,0.064 0.147,0.082 0.137,0.097 0.125,0.112 0.113,0.125 0.097,0.138 0.081,0.147 0.065,0.155 0.046,0.162 0.028,0.166 0.01,0.168 -0.01,0.168 -0.028,0.165 -0.046,0.162 -0.065,0.155 -0.081,0.148 -0.097,0.137 -0.113,0.125 -0.125,0.112 -0.137,0.098 -0.147,0.081 -0.156,0.064 -0.161,0.047 -0.166,0.028 -0.168,0.01 H 29.989 l -0.168,-0.01 -0.166,-0.028 -0.162,-0.047 -0.155,-0.064 -0.147,-0.081 -0.137,-0.098 -0.126,-0.112 -0.112,-0.125 -0.097,-0.137 -0.082,-0.148 -0.064,-0.155 -0.047,-0.162 -0.028,-0.165 -0.009,-0.168 0.009,-0.168 0.028,-0.166 0.047,-0.162 0.064,-0.155 0.082,-0.147 0.097,-0.138 0.112,-0.125 0.126,-0.112 0.137,-0.097 0.147,-0.082 0.155,-0.064 0.162,-0.047 0.166,-0.028 0.168,-0.009 h 47.882 z" />
            </g>
            <g
   id="g24">
                <path
   inkscape:connector-curvature="0"
   id="path20"
   style="fill:#4086b2;fill-rule:nonzero"
   d="M 29.989,109.347 H 77.871" />
                <path
   inkscape:connector-curvature="0"
   id="path22"
   style="fill:#1470b8"
   d="m 78.039,107.856 0.166,0.029 0.161,0.046 0.156,0.065 0.147,0.081 0.137,0.097 0.125,0.112 0.113,0.126 0.097,0.137 0.081,0.147 0.065,0.156 0.046,0.161 0.028,0.166 0.01,0.168 -0.01,0.168 -0.028,0.166 -0.046,0.161 -0.065,0.156 -0.081,0.147 -0.097,0.137 -0.113,0.126 -0.125,0.112 -0.137,0.097 -0.147,0.081 -0.156,0.065 -0.161,0.046 -0.166,0.029 -0.168,0.009 H 29.989 l -0.168,-0.009 -0.166,-0.029 -0.162,-0.046 -0.155,-0.065 -0.147,-0.081 -0.137,-0.097 -0.126,-0.112 -0.112,-0.126 -0.097,-0.137 -0.082,-0.147 -0.064,-0.156 -0.047,-0.161 -0.028,-0.166 -0.009,-0.168 0.009,-0.168 0.028,-0.166 0.047,-0.161 0.064,-0.156 0.082,-0.147 0.097,-0.137 0.112,-0.126 0.126,-0.112 0.137,-0.097 0.147,-0.081 0.155,-0.065 0.162,-0.046 0.166,-0.029 0.168,-0.009 h 47.882 z" />
            </g>
            <g
   id="g30">
                <path
   inkscape:connector-curvature="0"
   id="path26"
   style="fill:#4086b2;fill-rule:nonzero"
   d="M 29.988,77.109 H 77.871" />
                <path
   inkscape:connector-curvature="0"
   id="path28"
   style="fill:#1470b8"
   d="m 78.039,75.618 0.166,0.028 0.162,0.047 0.155,0.064 0.147,0.082 0.138,0.097 0.125,0.112 0.112,0.125 0.097,0.138 0.082,0.147 0.064,0.155 0.047,0.162 0.028,0.166 0.009,0.168 -0.009,0.168 -0.028,0.165 -0.047,0.162 -0.064,0.156 -0.082,0.147 -0.097,0.137 -0.112,0.125 -0.125,0.112 -0.138,0.098 -0.147,0.081 -0.155,0.065 -0.162,0.046 -0.166,0.028 -0.168,0.01 H 29.988 L 29.82,78.599 29.655,78.571 29.493,78.525 29.337,78.46 29.19,78.379 29.053,78.281 28.928,78.169 28.816,78.044 28.718,77.907 28.637,77.76 l -0.065,-0.156 -0.046,-0.162 -0.028,-0.165 -0.01,-0.168 0.01,-0.168 0.028,-0.166 0.046,-0.162 0.065,-0.155 0.081,-0.147 0.098,-0.138 0.112,-0.125 0.125,-0.112 0.137,-0.097 0.147,-0.082 0.156,-0.064 0.162,-0.047 0.165,-0.028 0.168,-0.009 h 47.883 z" />
            </g>
            <g
   id="g36">
                <path
   inkscape:connector-curvature="0"
   id="path32"
   style="fill:#4086b2;fill-rule:nonzero"
   d="M 30.089,92.512 77.974,92.511" />
                <path
   inkscape:connector-curvature="0"
   id="path34"
   style="fill:#1470b8"
   d="m 78.142,91.021 0.166,0.028 0.162,0.046 0.155,0.065 0.147,0.081 0.138,0.097 0.125,0.112 0.112,0.126 0.097,0.137 0.082,0.147 0.064,0.156 0.047,0.161 0.028,0.166 0.009,0.168 -0.009,0.168 -0.028,0.166 -0.047,0.161 -0.064,0.156 -0.081,0.147 -0.098,0.137 -0.112,0.126 -0.125,0.112 -0.138,0.097 -0.147,0.082 -0.155,0.064 -0.162,0.046 -0.166,0.029 -0.168,0.009 -47.885,0.001 -0.168,-0.009 -0.165,-0.028 -0.162,-0.047 -0.155,-0.064 -0.148,-0.082 -0.137,-0.097 -0.125,-0.112 -0.112,-0.126 -0.098,-0.137 -0.081,-0.147 -0.064,-0.155 -0.047,-0.162 -0.028,-0.166 -0.01,-0.168 0.01,-0.168 0.028,-0.166 0.047,-0.161 0.064,-0.156 0.081,-0.147 0.098,-0.137 0.112,-0.126 0.125,-0.112 0.137,-0.097 0.148,-0.081 0.155,-0.065 0.162,-0.046 0.165,-0.028 0.168,-0.01 47.885,-0.001 z" />
            </g>
            <g
   id="g42">
                <path
   inkscape:connector-curvature="0"
   id="path38"
   style="fill:#4086b2;fill-rule:nonzero"
   d="m 29.988,140.099 47.884,-0.002" />
                <path
   inkscape:connector-curvature="0"
   id="path40"
   style="fill:#1470b8"
   d="m 78.04,138.606 0.166,0.029 0.161,0.046 0.156,0.065 0.147,0.081 0.137,0.097 0.125,0.112 0.113,0.126 0.097,0.137 0.081,0.147 0.065,0.156 0.046,0.161 0.028,0.166 0.01,0.168 -0.01,0.168 -0.028,0.166 -0.046,0.161 -0.065,0.156 -0.081,0.147 -0.097,0.137 -0.112,0.126 -0.126,0.112 -0.137,0.097 -0.147,0.081 -0.156,0.065 -0.161,0.046 -0.166,0.029 -0.168,0.009 -47.884,0.002 -0.168,-0.009 -0.166,-0.029 -0.162,-0.046 -0.155,-0.065 -0.147,-0.081 -0.137,-0.097 -0.126,-0.112 -0.112,-0.126 -0.097,-0.137 -0.082,-0.147 -0.064,-0.156 -0.047,-0.161 -0.028,-0.166 -0.009,-0.168 0.009,-0.168 0.028,-0.166 0.047,-0.161 0.064,-0.156 0.082,-0.147 0.097,-0.137 0.112,-0.126 0.126,-0.112 0.137,-0.097 0.147,-0.081 0.155,-0.065 0.162,-0.046 0.166,-0.029 0.168,-0.009 47.884,-0.002 z" />
            </g>
        </g><g
   transform="matrix(4.0368907,0,0,4.0368907,54.072951,148.76483)"
   id="g48">
                <g
   aria-label="H"
   style="font-weight:700;font-size:44.23099899px;font-family:Optima-Bold, Optima;fill:#1d1d1b"
   id="text46"><path
     d="m 4.0602675,-32.244571 h 8.3149095 v 12.288788 h 12.267191 v -12.288788 h 8.31491 V 0 h -8.31491 V -13.671007 H 12.375177 V 0 H 4.0602675 Z"
     style="font-weight:700;font-size:44.23099899px;font-family:Optima-Bold, Optima;fill:#1d1d1b"
     id="path928" /></g>
            </g><g
   transform="matrix(4.0368907,0,0,4.0368907,291.82426,248.46367)"
   id="g52">
                <g
   aria-label="O"
   style="font-weight:700;font-size:44.23099899px;font-family:Optima-Bold, Optima;fill:#f30202"
   id="text50"><path
     d="m 18.789536,-26.802085 q -3.801102,0 -5.896027,2.807632 -2.094925,2.807632 -2.094925,7.904563 0,5.075335 2.094925,7.8829664 2.094925,2.8076317 5.896027,2.8076317 3.822698,0 5.917624,-2.8076317 2.094925,-2.8076314 2.094925,-7.8829664 0,-5.096931 -2.094925,-7.904563 -2.094926,-2.807632 -5.917624,-2.807632 z m 0,-6.02561 q 7.77498,0 12.180802,4.449017 4.405822,4.449016 4.405822,12.288788 0,7.8181749 -4.405822,12.2671914 -4.405822,4.44901646 -12.180802,4.44901646 -7.753383,0 -12.1808028,-4.44901646 -4.4058221,-4.4490165 -4.4058221,-12.2671914 0,-7.839772 4.4058221,-12.288788 4.4274198,-4.449017 12.1808028,-4.449017 z"
     style="font-weight:700;font-size:44.23099899px;font-family:Optima-Bold, Optima;fill:#f30202"
     id="path931"
     inkscape:connector-curvature="0" /></g>
            </g><g
   transform="matrix(4.0368907,0,0,4.0368907,290.3126,519.82008)"
   id="g56">
                <g
   aria-label="H"
   style="font-weight:700;font-size:44.23099899px;font-family:Optima-Bold, Optima;fill:#1d1d1b"
   id="text54"><path
     d="m 4.0602675,-32.244571 h 8.3149095 v 12.288788 h 12.267191 v -12.288788 h 8.31491 V 0 h -8.31491 V -13.671007 H 12.375177 V 0 H 4.0602675 Z"
     style="font-weight:700;font-size:44.23099899px;font-family:Optima-Bold, Optima;fill:#1d1d1b"
     id="path925" /></g>
            </g>
<rect
   style="fill:#000000;fill-opacity:1;stroke-width:0.81695765"
   id="rect992"
   width="26.366819"
   height="96.53212"
   x="353.92795"
   y="270.88666"
   ry="13.18341" /><rect
   style="clip-rule:evenodd;fill:#000000;fill-opacity:1;fill-rule:evenodd;stroke-width:0.81695765;stroke-linecap:round;stroke-linejoin:round;stroke-miterlimit:1.5"
   id="rect992-8"
   width="26.366819"
   height="96.53212"
   x="22.093565"
   y="217.70259"
   ry="13.18341"
   transform="rotate(-60)" /></svg>