<?xml version="1.0" encoding="UTF-8" standalone="no"?>
<svg
   xmlns:dc="http://purl.org/dc/elements/1.1/"
   xmlns:cc="http://creativecommons.org/ns#"
   xmlns:rdf="http://www.w3.org/1999/02/22-rdf-syntax-ns#"
   xmlns:svg="http://www.w3.org/2000/svg"
   xmlns="http://www.w3.org/2000/svg"
   xmlns:sodipodi="http://sodipodi.sourceforge.net/DTD/sodipodi-0.dtd"
   xmlns:inkscape="http://www.inkscape.org/namespaces/inkscape"
   version="1.1"
   width="512"
   height="512"
   id="svg4"
   sodipodi:docname="logo-fortran.svg"
   inkscape:version="0.92.3 (2405546, 2018-03-11)">
  <metadata
     id="metadata10">
    <rdf:RDF>
      <cc:Work
         rdf:about="">
        <dc:format>image/svg+xml</dc:format>
        <dc:type
           rdf:resource="http://purl.org/dc/dcmitype/StillImage" />
        <dc:title />
      </cc:Work>
    </rdf:RDF>
  </metadata>
  <defs
     id="defs8" />
  <sodipodi:namedview
     pagecolor="#ffffff"
     bordercolor="#666666"
     borderopacity="1"
     objecttolerance="10"
     gridtolerance="10"
     guidetolerance="10"
     inkscape:pageopacity="0"
     inkscape:pageshadow="2"
     inkscape:window-width="1482"
     inkscape:window-height="757"
     id="namedview6"
     showgrid="false"
     inkscape:zoom="0.4609375"
     inkscape:cx="236.5"
     inkscape:cy="256"
     inkscape:window-x="0"
     inkscape:window-y="27"
     inkscape:window-maximized="0"
     inkscape:current-layer="svg4" />
  <rect
     style="fill:#aade87;stroke-width:0.96570414"
     id="rect7"
     width="329.07632"
     height="401.35593"
     x="93.63134"
     y="43.389828" />
  <path
     d="m 141.01695,360.76815 h 21.82886 c 12.1008,0 24,-6.8414 24,-23.83025 V 176.91056 c 0,-21.52437 -7.17827,-23.83025 -29.47092,-23.83025 h -14.99008 v -29.21083 h 245.30902 v 106.16678 h -28.60132 c 0,-25.36787 -2.90025,-43.90111 -10.15164,-57.73799 -7.97684,-15.37396 -24.33374,-19.21744 -52.97684,-19.21744 h -58.34384 v 84.64815 h 11.32155 c 33.05484,0 41.81459,-8.27455 41.1257,-52.36264 h 25.79143 v 137.35028 h -25.79143 c -2.30641,-44.20038 -4.78308,-59.97859 -46.21274,-59.49547 h -6.91818 v 73.71675 c 0,21.52384 8.93053,23.83025 31.22319,23.83025 h 16.01323 v 29.21136 H 141.01695 Z"
     id="path2"
     inkscape:connector-curvature="0"
     style="fill:#2b1100;stroke-width:0.52228409" />
</svg>
